<?xml version="1.0" standalone="no"?><!DOCTYPE svg PUBLIC "-//W3C//DTD SVG 1.1//EN" "http://www.w3.org/Graphics/SVG/1.1/DTD/svg11.dtd"><svg t="1542090624625" class="icon" style="" viewBox="0 0 1025 1024" version="1.1" xmlns="http://www.w3.org/2000/svg" p-id="2449" xmlns:xlink="http://www.w3.org/1999/xlink" width="64.0625" height="64"><defs><style type="text/css"></style></defs><path d="M981.428447 189.388781 552.625959 536.313836c-22.837378 18.647648-60.280929 18.647648-83.118307 0L40.705164 189.388781C26.101021 177.581176 0 187.835149 0 209.275273l0 605.453516c0 29.360602 24.080284 53.440886 53.444948 53.440886l917.110104 0c29.362633 0 53.444948-24.080284 53.444948-53.440886L1024 209.275273C1023.843621 185.349337 998.67478 175.560439 981.428447 189.388781z" p-id="2450" fill="#ffffff"></path><path d="M108.597875 189.388781l362.152682 292.860686c22.839409 18.33286 60.280929 18.33286 83.120338 0L915.867199 189.388781c22.837378-18.33286 17.557059-33.558456-11.807605-33.558456L120.407511 155.830325C90.732121 155.986704 85.760498 171.055921 108.597875 189.388781z" p-id="2451" fill="#ffffff"></path></svg>