<svg width="64" height="64" xmlns="http://www.w3.org/2000/svg">
  <path d="M32 0C14.329 0 0 14.329 0 32s14.329 32 32 32 32-14.329 32-32S49.671 0 32 0zm15.86 21.51l-19.202 25c-.151.154-.4.49-.704.49-.317 0-.524-.224-.704-.406-.179-.182-10.891-10.63-10.891-10.63l-.207-.21a.829.829 0 0 1-.152-.449c0-.168.069-.322.152-.448.055-.056.096-.098.152-.168 1.063-1.134 3.216-3.431 3.354-3.571.18-.182.331-.42.663-.42.345 0 .566.294.731.462.166.168 6.212 6.064 6.212 6.064l15.364-20.028a.781.781 0 0 1 .484-.196c.179 0 .345.07.483.182l4.224 3.375c.11.14.18.309.18.49a.733.733 0 0 1-.139.463z" fill-rule="nonzero"/>
</svg>
