<svg width="400" height="300" viewBox="0 0 400 300" xmlns="http://www.w3.org/2000/svg" xmlns:xlink="http://www.w3.org/1999/xlink"><defs><path id="a" d="M0 0h400v300H0z"/><path id="b" d="M0 0h80v272H0z"/><path id="c" d="M0 0h400v30H0z"/></defs><g fill="none" fill-rule="evenodd"><g><use fill="#F5F5F5" xlink:href="#a"/><path stroke="#1C1C1C" d="M.5.5h399v299H.5z"/></g><g transform="translate(0 28)"><use fill="#FFF" xlink:href="#b"/><path stroke="#1C1C1C" d="M.5.5h79v271H.5z"/></g><g fill="#DEDEDE"><g transform="translate(8 45)"><circle cx="6" cy="6" r="6"/><path d="M18 4h38v4H18z"/></g><g transform="translate(8 67)"><circle cx="6" cy="6" r="6"/><path d="M18 4h38v4H18z"/></g><g transform="translate(8 89)"><circle cx="6" cy="6" r="6"/><path d="M18 4h38v4H18z"/></g><g transform="translate(8 111)"><circle cx="6" cy="6" r="6"/><path d="M18 4h38v4H18z"/></g><g transform="translate(8 133)"><circle cx="6" cy="6" r="6"/><path d="M18 4h38v4H18z"/></g></g><g><g><use fill="#FFF" xlink:href="#c"/><path stroke="#1C1C1C" d="M.5.5h399v29H.5z"/></g><path fill="#999" d="M18 8h44v14H18z"/><g fill="#999"><path d="M367 13h24v4h-24zM337 13h24v4h-24zM307 13h24v4h-24zM277 13h24v4h-24z"/></g></g></g></svg>