<svg width="400" height="300" viewBox="0 0 400 300" xmlns="http://www.w3.org/2000/svg" xmlns:xlink="http://www.w3.org/1999/xlink"><defs><path id="a" d="M0 0h400v300H0z"/><path id="b" d="M0 0h400v30H0z"/></defs><g fill="none" fill-rule="evenodd"><g><use fill="#F2F2F2" xlink:href="#a"/><path stroke="#1C1C1C" d="M.5.5h399v299H.5z"/></g><path fill="#FFF" d="M1 29h398v36H1z"/><g fill="#999"><path d="M316 45h24v4h-24zM286 45h24v4h-24z"/></g><path fill="#999" d="M60 45h24v4H60z"/><g><use fill="#FFF" xlink:href="#b"/><path stroke="#1C1C1C" d="M.5.5h399v29H.5z"/></g><path fill="#999" d="M60 8h44v14H60z"/><g fill="#999"><path d="M316 13h24v4h-24zM286 13h24v4h-24zM256 13h24v4h-24zM226 13h24v4h-24z"/></g><g><path fill="#FFF" d="M60 74h136v60H60z"/><path fill="#CCC" d="M65 78h24v4H65zM187 78h4v4h-4z"/><path fill="#E5E5E5" d="M65 85h126v1H65z"/></g><g><path fill="#FFF" d="M204 74h136v60H204z"/><path fill="#CCC" d="M209 78h24v4h-24zM331 78h4v4h-4z"/><path fill="#E5E5E5" d="M209 85h126v1H209z"/></g><g><path fill="#FFF" d="M60 141h280v86H60z"/><path fill="#CCC" d="M65 145h24v4H65zM331 145h4v4h-4z"/><path fill="#E5E5E5" d="M65 152h270v1H65z"/></g></g></svg>
