<svg width="400" height="300" viewBox="0 0 400 300" xmlns="http://www.w3.org/2000/svg" xmlns:xlink="http://www.w3.org/1999/xlink"><defs><path id="a" d="M0 0h400v300H0z"/><path id="b" d="M0 0h32v300H0z"/><path id="c" d="M22 0h369v30H22z"/></defs><g fill="none" fill-rule="evenodd"><g><use fill="#F5F5F5" xlink:href="#a"/><path stroke="#1C1C1C" d="M.5.5h399v299H.5z"/></g><g><use fill="#FFF" xlink:href="#b"/><path stroke="#1C1C1C" d="M.5.5h31v299H.5z"/></g><g fill="#DEDEDE"><circle cx="6" cy="6" r="6" transform="translate(10 44)"/><circle cx="6" cy="6" r="6" transform="translate(10 66)"/><circle cx="6" cy="6" r="6" transform="translate(10 88)"/><circle cx="6" cy="6" r="6" transform="translate(10 110)"/><circle cx="6" cy="6" r="6" transform="translate(10 132)"/></g><g><g transform="translate(9)"><use fill="#FFF" xlink:href="#c"/><path stroke="#1C1C1C" d="M22.5.5h368v29h-368z"/></g><path fill="#999" d="M9 7h14v14H9z"/><g fill="#999"><path d="M367 12h24v4h-24zM337 12h24v4h-24zM307 12h24v4h-24zM277 12h24v4h-24z"/></g></g></g></svg>
